<?xml version="1.0" encoding="UTF-8"?>
<svg id="Layer_1" xmlns="http://www.w3.org/2000/svg" version="1.1" viewBox="0 0 626.59 1080">
  <!-- Generator: Adobe Illustrator 29.1.0, SVG Export Plug-In . SVG Version: 2.1.0 Build 142)  -->
  <defs>
    <style>
      .st0 {
        fill: #252524;
      }
    </style>
  </defs>
  <path class="st0" d="M0,733.64c154.77,0,280.23-125.46,280.23-280.23H0v280.23Z"/>
  <path class="st0" d="M280.23,453.41h173.18C453.41,203,250.41,0,0,0v173.18c154.77,0,280.23,125.46,280.23,280.23Z"/>
  <path class="st0" d="M422.77,915.87c19.77,50.9,30.64,106.24,30.64,164.13h173.18c0-114.13-30.52-221.13-83.84-313.29-32.23,55.72-72.79,106.01-119.98,149.17Z"/>
  <path class="st0" d="M453.41,453.41h0C453.41,703.82,250.41,906.82,0,906.82v173.18c346.06,0,626.59-280.53,626.59-626.59h-173.18Z"/>
</svg>