<?xml version="1.0" encoding="UTF-8"?>
<svg id="Layer_1" data-name="Layer 1" xmlns="http://www.w3.org/2000/svg" viewBox="0 0 765.32 765.32">
  <defs>
    <style>
      .cls-1 {
        fill: #d4d4d4;
      }
    </style>
  </defs>
  <path class="cls-1" d="M0,40.58v684.17c0,22.41,18.17,40.58,40.58,40.58h684.17c22.41,0,40.58-18.17,40.58-40.58V40.58c0-22.41-18.17-40.58-40.58-40.58H40.58C18.17,0,0,18.17,0,40.58ZM257.05,166.16c100.4,0,181.79,81.39,181.79,181.79h-69.43c0,62.05-50.3,112.35-112.35,112.35v-112.35h112.35c0-62.05-50.3-112.35-112.35-112.35v-69.43ZM474.66,473.55c21.38,36.95,33.61,79.85,33.61,125.61h-69.43c0-23.21-4.36-45.4-12.28-65.8,1.2-1.09,2.38-2.2,3.56-3.32-45.05,42.83-105.99,69.12-173.06,69.12v-69.43c100.4,0,181.79-81.39,181.79-181.79h69.43c0,45.92-12.33,88.97-33.85,126.01.08-.13.16-.27.24-.4Z"/>
</svg>